<svg width="45" height="45" viewBox="0 0 45 45" fill="none" xmlns="http://www.w3.org/2000/svg">
<path fill-rule="evenodd" clip-rule="evenodd" d="M45 22.5C45 10.0736 34.9264 0 22.5 0C10.0736 0 0 10.0736 0 22.5C0 34.9264 10.0736 45 22.5 45C34.9264 45 45 34.9264 45 22.5ZM22.6465 22.8534C22.8417 22.6581 22.8417 22.3415 22.6464 22.1463L16.148 15.648C15.1784 14.6784 14.9792 13.1616 15.8586 12.1095C16.5593 11.2711 17.3947 10.4362 18.2503 9.8345C19.2577 9.126 20.5521 9.4582 21.4683 10.2815C24.7418 13.2232 29.0704 17.6097 31.2467 20.4924C32.1661 21.7102 32.1661 23.2895 31.2468 24.5073C29.0705 27.3902 24.7418 31.7768 21.4683 34.7185C20.5521 35.5418 19.2577 35.874 18.2503 35.1655C17.3946 34.5637 16.5593 33.7289 15.8585 32.8904C14.9792 31.8384 15.1784 30.3216 16.1479 29.352L22.6465 22.8534Z" fill="#BF8B70"/>
</svg>
