<svg width="45" height="45" viewBox="0 0 45 45" fill="none" xmlns="http://www.w3.org/2000/svg">
<path fill-rule="evenodd" clip-rule="evenodd" d="M0 22.5C0 34.9264 10.0736 45 22.5 45C34.9264 45 45 34.9264 45 22.5C45 10.0736 34.9264 0 22.5 0C10.0736 0 0 10.0736 0 22.5ZM22.3535 22.1466C22.1583 22.3419 22.1583 22.6585 22.3536 22.8537L28.852 29.352C29.8216 30.3216 30.0208 31.8384 29.1414 32.8905C28.4407 33.7289 27.6053 34.5638 26.7497 35.1655C25.7423 35.874 24.4479 35.5418 23.5317 34.7185C20.2582 31.7768 15.9296 27.3903 13.7533 24.5076C12.8339 23.2898 12.8339 21.7105 13.7532 20.4927C15.9295 17.6098 20.2582 13.2232 23.5317 10.2815C24.4479 9.4582 25.7423 9.126 26.7497 9.8345C27.6054 10.4363 28.4407 11.2711 29.1415 12.1096C30.0208 13.1616 29.8216 14.6784 28.8521 15.648L22.3535 22.1466Z" fill="#BF8B70"/>
</svg>
