<svg width="47" height="31" viewBox="0 0 47 31" fill="none" xmlns="http://www.w3.org/2000/svg">
<mask id="mask0_1_974" style="mask-type:luminance" maskUnits="userSpaceOnUse" x="0" y="0" width="47" height="31">
<path d="M0 0H46.0366V30.74H0V0Z" fill="white"/>
</mask>
<g mask="url(#mask0_1_974)">
<path d="M40.7207 9.0959H34.8556C34.8269 9.0971 34.7983 9.0947 34.7703 9.08931C34.7422 9.08392 34.7154 9.07553 34.6892 9.06415C34.663 9.05277 34.638 9.03899 34.6149 9.02222C34.5917 9.00544 34.571 8.98687 34.5521 8.96531C34.5332 8.94434 34.5174 8.92098 34.504 8.89642C34.4899 8.87126 34.4796 8.8455 34.4717 8.81854C34.4637 8.79158 34.4595 8.76343 34.4577 8.73527C34.4564 8.70772 34.4577 8.67956 34.4625 8.65201L35.2712 2.53993C35.2754 2.51237 35.2773 2.48482 35.276 2.45666C35.2742 2.42851 35.2699 2.40095 35.262 2.37399C35.2541 2.34704 35.2437 2.32128 35.2303 2.29672C35.2169 2.27216 35.2011 2.24879 35.1822 2.22783C35.1633 2.20626 35.1426 2.18769 35.12 2.17092C35.0969 2.15414 35.0725 2.13977 35.0463 2.12839C35.0207 2.117 34.9933 2.10862 34.9653 2.10323C34.9378 2.09783 34.9092 2.09544 34.8806 2.09604H8.86418C8.75937 2.09843 8.65578 2.11041 8.5528 2.13078C8.45042 2.15115 8.35049 2.1805 8.25299 2.21824C8.15549 2.25598 8.06226 2.30151 7.97268 2.35542C7.88371 2.40934 7.79962 2.47044 7.72162 2.53873C7.64301 2.60702 7.57111 2.68131 7.5059 2.76218C7.4407 2.84245 7.38342 2.92811 7.33345 3.01857C7.28348 3.10903 7.24144 3.20308 7.20853 3.30072C7.17502 3.39836 7.15064 3.49841 7.13541 3.60024L6.97271 4.82829H17.0023C17.0961 4.82589 17.19 4.83368 17.282 4.85165C17.3746 4.86962 17.4642 4.89718 17.5501 4.93432C17.6367 4.97146 17.7177 5.01759 17.7939 5.0727C17.8694 5.12721 17.9389 5.19011 18.0004 5.2596C18.0626 5.32969 18.1162 5.40517 18.1607 5.48664C18.2058 5.56811 18.2411 5.65378 18.2667 5.74303C18.2929 5.83229 18.3082 5.92275 18.3137 6.0156C18.3191 6.10785 18.3137 6.20011 18.2984 6.29176C18.2832 6.3906 18.2594 6.48765 18.2271 6.5829C18.1942 6.67755 18.1534 6.7692 18.1046 6.85726C18.0559 6.94532 17.9998 7.02799 17.9365 7.10646C17.8731 7.18494 17.803 7.25742 17.7268 7.32392C17.6501 7.38981 17.5684 7.44912 17.4819 7.50184C17.3947 7.55395 17.3039 7.59888 17.2095 7.63542C17.1144 7.67197 17.0169 7.70072 16.9176 7.72049C16.8177 7.74026 16.7165 7.75164 16.6147 7.75463H2.97098C2.90273 7.75523 2.8357 7.76182 2.76928 7.7744C2.70225 7.78638 2.63705 7.80435 2.57368 7.82832C2.5103 7.85228 2.44997 7.88103 2.39147 7.91578C2.33358 7.94992 2.27874 7.98946 2.22755 8.03319C2.17637 8.07692 2.13005 8.12544 2.0874 8.17756C2.04535 8.22968 2.00757 8.28479 1.97528 8.3435C1.94298 8.4022 1.91617 8.46331 1.89484 8.5268C1.87351 8.5897 1.85767 8.6544 1.84853 8.7209V8.74845C1.83878 8.80776 1.83573 8.86766 1.83939 8.92817C1.84304 8.98807 1.8534 9.04738 1.87046 9.10548C1.88692 9.16299 1.91007 9.2187 1.93932 9.27202C1.96796 9.32474 2.0027 9.37386 2.04292 9.41998C2.08313 9.46551 2.12762 9.50625 2.17698 9.54219C2.22573 9.57813 2.27874 9.60868 2.33419 9.63324C2.39026 9.65781 2.44815 9.67638 2.50847 9.68896C2.56819 9.70094 2.62913 9.70693 2.69006 9.70633H16.3649C16.4594 9.70393 16.5526 9.71112 16.6452 9.72909C16.7372 9.74706 16.8268 9.77462 16.9133 9.81176C16.9993 9.8489 17.0803 9.89503 17.1565 9.95014C17.232 10.0053 17.3009 10.0676 17.363 10.1376C17.4246 10.2071 17.4782 10.2832 17.5227 10.3647C17.5678 10.4462 17.6025 10.5318 17.6281 10.6205C17.6537 10.7097 17.6696 10.8008 17.6744 10.893C17.6793 10.9859 17.6744 11.0775 17.6586 11.1692C17.6434 11.2686 17.6196 11.3657 17.5873 11.4603C17.555 11.5556 17.5142 11.6472 17.4654 11.7353C17.4167 11.8234 17.3606 11.9066 17.2972 11.9851C17.2339 12.063 17.1638 12.1355 17.0876 12.202C17.0108 12.2685 16.9292 12.3278 16.8426 12.3799C16.7555 12.4326 16.6647 12.4769 16.5696 12.5135C16.4752 12.55 16.3777 12.5788 16.2778 12.5985C16.1778 12.6183 16.0767 12.6297 15.9749 12.6321H5.83319C5.76677 12.6339 5.70095 12.6417 5.63514 12.6548C5.56994 12.668 5.50656 12.6866 5.44441 12.7105C5.38286 12.7345 5.32314 12.7639 5.26647 12.798C5.2098 12.8322 5.15618 12.8711 5.10621 12.9148C5.05624 12.958 5.01054 13.0053 4.9691 13.0568C4.92766 13.1083 4.8911 13.1628 4.85942 13.2203C4.82773 13.2778 4.80092 13.3377 4.77959 13.3995C4.75887 13.4618 4.74303 13.5253 4.73328 13.5899V13.6175C4.72353 13.6774 4.72048 13.7373 4.72414 13.7972C4.72779 13.8577 4.73815 13.9164 4.75521 13.9745C4.77167 14.0326 4.79482 14.0884 4.82407 14.1411C4.85332 14.1944 4.88745 14.2435 4.92766 14.289C4.96788 14.3346 5.01237 14.3753 5.06173 14.4118C5.11048 14.4478 5.16349 14.4777 5.21894 14.5029C5.275 14.5275 5.33289 14.546 5.39322 14.558C5.45294 14.5706 5.51388 14.5766 5.57481 14.5754H15.7196C15.8128 14.5742 15.9054 14.5826 15.9968 14.6005C16.0882 14.6191 16.1766 14.6473 16.2619 14.6844C16.3466 14.7215 16.4271 14.7677 16.502 14.8228C16.577 14.8773 16.6452 14.939 16.7061 15.0085C16.7671 15.078 16.8201 15.1529 16.8646 15.2337C16.9091 15.3146 16.9438 15.3991 16.9694 15.4871C16.995 15.5752 17.0102 15.665 17.0157 15.7567C17.0218 15.8484 17.0169 15.9394 17.0023 16.0305C16.9871 16.1293 16.9633 16.2264 16.931 16.3216C16.8987 16.4169 16.8579 16.5085 16.8097 16.5966C16.761 16.6846 16.7049 16.7679 16.6409 16.8464C16.5776 16.9248 16.5075 16.9973 16.4313 17.0638C16.3551 17.1303 16.2735 17.1896 16.1864 17.2417C16.0992 17.2939 16.0084 17.3388 15.9134 17.3753C15.8183 17.4119 15.7208 17.44 15.6209 17.4598C15.5209 17.4796 15.4204 17.4909 15.3186 17.4933H4.48344C4.41701 17.4951 4.35059 17.5029 4.28539 17.5161C4.22019 17.5287 4.15681 17.5479 4.09466 17.5718C4.0325 17.5958 3.97339 17.6251 3.91672 17.6593C3.86005 17.6934 3.80643 17.7324 3.75646 17.7761C3.70649 17.8192 3.66079 17.8665 3.61935 17.9181C3.57791 17.969 3.54135 18.0235 3.50966 18.081C3.47798 18.1385 3.45117 18.1984 3.42984 18.2607C3.40912 18.323 3.39328 18.3865 3.38353 18.4512C3.37378 18.5105 3.37073 18.5704 3.37439 18.6309C3.37804 18.6908 3.3884 18.7501 3.40546 18.8082C3.42192 18.8658 3.44507 18.9215 3.47432 18.9748C3.50296 19.0275 3.5377 19.0772 3.57791 19.1227C3.61813 19.1683 3.66262 19.209 3.71198 19.245C3.76072 19.2809 3.81374 19.3114 3.86919 19.336C3.92525 19.3612 3.98314 19.3791 4.04347 19.3917C4.10319 19.4043 4.16413 19.4097 4.22506 19.4091H5.03613L4.55047 23.1274C4.53462 23.2214 4.52914 23.3161 4.53462 23.4107C4.54011 23.506 4.55595 23.5994 4.58215 23.6911C4.60836 23.7827 4.64492 23.8708 4.69062 23.9547C4.73693 24.0385 4.79178 24.1164 4.85515 24.1883C4.91852 24.2602 4.98921 24.3243 5.06721 24.3806C5.14521 24.4369 5.22869 24.4848 5.31766 24.5232C5.40602 24.5615 5.49803 24.5896 5.5931 24.6082C5.68816 24.6262 5.78383 24.634 5.88072 24.6316H7.94343C7.5705 27.4309 9.57958 29.7001 12.4253 29.7001C15.2705 29.7001 17.878 27.4309 18.2509 24.6316H29.0215C28.651 27.4309 30.6601 29.7001 33.5113 29.7001C36.3625 29.7001 38.9639 27.4309 39.3344 24.6316H42.2021C42.2655 24.6298 42.3258 24.6178 42.3843 24.5944C42.4428 24.5717 42.4958 24.5393 42.5421 24.498C42.5891 24.4561 42.6275 24.4081 42.6567 24.3536C42.686 24.2985 42.7048 24.2404 42.7134 24.1793L43.7962 16.0107L40.7207 9.0959ZM16.1742 24.731C16.1376 24.9275 16.0852 25.1198 16.0163 25.3079C15.9469 25.496 15.8628 25.6769 15.7628 25.8512C15.6629 26.0256 15.549 26.1903 15.421 26.3455C15.2936 26.5006 15.1535 26.645 15.0011 26.7774C14.8488 26.9092 14.6867 27.0284 14.5142 27.1344C14.3412 27.2398 14.1614 27.3309 13.9731 27.407C13.7854 27.483 13.5923 27.5429 13.3942 27.5873C13.1962 27.6316 12.9957 27.6598 12.7928 27.6711C12.691 27.6771 12.5893 27.6771 12.4875 27.6723C12.3857 27.6669 12.2846 27.6556 12.184 27.6388C12.0835 27.622 11.9841 27.5999 11.886 27.5717C11.7885 27.5435 11.6923 27.5106 11.5984 27.4717C11.5046 27.4327 11.4132 27.389 11.3242 27.3399C11.2352 27.2907 11.1493 27.2368 11.0671 27.1781C10.9842 27.1194 10.905 27.0565 10.83 26.9888C10.7544 26.9211 10.6838 26.8492 10.6167 26.7738C10.5497 26.6983 10.4875 26.6186 10.4297 26.5359C10.3724 26.4533 10.3194 26.3676 10.2718 26.279C10.2243 26.1903 10.1816 26.0998 10.1445 26.0064C10.1073 25.9129 10.0756 25.8177 10.05 25.7206C10.0238 25.6236 10.0037 25.5254 9.98908 25.4265C9.97445 25.3271 9.96531 25.2276 9.96227 25.127C9.95983 25.0269 9.96227 24.9269 9.97141 24.8269C9.97994 24.7268 9.99456 24.628 10.0147 24.5297C10.0506 24.3333 10.103 24.1416 10.1719 23.9541C10.2407 23.7666 10.3248 23.5862 10.4242 23.4125C10.5235 23.2388 10.6368 23.0741 10.7642 22.9189C10.8916 22.7638 11.0305 22.62 11.1822 22.4876C11.334 22.3552 11.4954 22.2366 11.6673 22.1306C11.8391 22.0245 12.0183 21.9335 12.2054 21.8574C12.3924 21.7807 12.585 21.7202 12.7824 21.6753C12.9799 21.6304 13.1797 21.6016 13.382 21.5896C13.4838 21.583 13.5862 21.5824 13.6886 21.5872C13.7903 21.592 13.8921 21.6028 13.9926 21.619C14.0938 21.6351 14.1931 21.6573 14.2918 21.6849C14.3899 21.7124 14.4862 21.7454 14.5807 21.7843C14.6751 21.8226 14.7671 21.8664 14.8567 21.9155C14.9463 21.964 15.0322 22.0179 15.1151 22.0766C15.1986 22.1354 15.2778 22.1982 15.3533 22.2659C15.4289 22.3336 15.5008 22.4055 15.5678 22.481C15.6355 22.5571 15.6976 22.6362 15.7561 22.7188C15.814 22.8021 15.867 22.8878 15.9152 22.9764C15.9633 23.0651 16.006 23.1567 16.0432 23.2502C16.0803 23.3436 16.112 23.4395 16.1382 23.5365C16.1644 23.6336 16.1851 23.7318 16.1998 23.8319C16.2144 23.9313 16.2235 24.0313 16.2266 24.132C16.2296 24.232 16.2266 24.3327 16.218 24.4327C16.2089 24.5333 16.1949 24.6328 16.1742 24.731ZM37.2547 24.731C37.2187 24.9275 37.1663 25.1192 37.0974 25.3067C37.0286 25.4942 36.9445 25.6745 36.8452 25.8482C36.7458 26.022 36.6325 26.1867 36.5051 26.3419C36.3784 26.497 36.2388 26.6408 36.0871 26.7732C35.9354 26.9056 35.7739 27.0242 35.602 27.1302C35.4308 27.2362 35.251 27.3273 35.064 27.4034C34.8769 27.48 34.6843 27.5406 34.4869 27.5855C34.2895 27.6304 34.0896 27.6586 33.8873 27.6711C33.7855 27.6771 33.6838 27.6771 33.582 27.6723C33.4802 27.6669 33.3791 27.6556 33.2785 27.6388C33.178 27.622 33.0787 27.5999 32.9812 27.5717C32.883 27.5435 32.7874 27.5106 32.6929 27.4717C32.5991 27.4327 32.5077 27.389 32.4187 27.3399C32.3297 27.2907 32.2438 27.2368 32.1616 27.1781C32.0787 27.1194 32.0001 27.0565 31.9245 26.9888C31.8496 26.9211 31.7783 26.8492 31.7112 26.7738C31.6442 26.6983 31.582 26.6186 31.5248 26.5359C31.4669 26.4533 31.4139 26.3676 31.3663 26.279C31.3188 26.1903 31.2761 26.0998 31.239 26.0064C31.2018 25.9129 31.1707 25.8177 31.1445 25.7206C31.1183 25.6236 31.0982 25.5254 31.0836 25.4265C31.069 25.3271 31.0604 25.2276 31.0574 25.127C31.0543 25.0269 31.0574 24.9269 31.0659 24.8269C31.0744 24.7268 31.0891 24.628 31.1092 24.5297C31.1457 24.3333 31.1981 24.1416 31.267 23.9541C31.3352 23.7666 31.4193 23.5862 31.5187 23.4125C31.618 23.2388 31.7313 23.0741 31.8587 22.9189C31.9861 22.7638 32.1256 22.62 32.2767 22.4876C32.4285 22.3552 32.5899 22.2366 32.7618 22.1306C32.9336 22.0245 33.1128 21.9335 33.3005 21.8574C33.4875 21.7807 33.6795 21.7202 33.8769 21.6753C34.0744 21.6304 34.2742 21.6016 34.4765 21.5896C34.5783 21.5836 34.6801 21.583 34.7818 21.5884C34.8836 21.5938 34.9848 21.6052 35.0853 21.622C35.1858 21.6387 35.2852 21.6609 35.3833 21.6891C35.4808 21.7166 35.5771 21.7502 35.6709 21.7891C35.7647 21.828 35.8568 21.8718 35.9451 21.9209C36.0341 21.97 36.12 22.0239 36.2029 22.0826C36.2851 22.1413 36.3644 22.2042 36.4393 22.2719C36.5149 22.3396 36.5856 22.4115 36.6526 22.487C36.7196 22.5625 36.7818 22.6421 36.8397 22.7248C36.8976 22.8075 36.95 22.8931 36.9975 22.9812C37.0456 23.0699 37.0877 23.1609 37.1249 23.2544C37.162 23.3478 37.1937 23.4431 37.2199 23.5401C37.2455 23.6372 37.2662 23.7354 37.2802 23.8342C37.2949 23.9337 37.304 24.0331 37.3071 24.1338C37.3101 24.2338 37.3071 24.3339 37.2985 24.4339C37.2894 24.5339 37.2754 24.6328 37.2547 24.731ZM33.5144 16.0191L34.1006 11.6023H39.3734L41.3996 16.0389L33.5144 16.0191Z" fill="#3A2215"/>
</g>
</svg>
