<svg width="130" height="60" viewBox="0 0 130 60" fill="none" xmlns="http://www.w3.org/2000/svg">
<g clip-path="url(#clip0_158_27)">
<g clip-path="url(#clip1_158_27)">
<path d="M26.9035 57.4619C40.3602 57.4619 51.269 46.5531 51.269 33.0964C51.269 19.6398 40.3602 8.73096 26.9035 8.73096C13.4468 8.73096 2.53802 19.6398 2.53802 33.0964C2.53802 46.5531 13.4468 57.4619 26.9035 57.4619Z" fill="#F7F2EC"/>
<path d="M56.3452 14.8223C58.0711 14.8223 59.3909 16.142 59.3909 17.868C59.3909 19.5939 58.0711 20.9136 56.3452 20.9136C55.2284 20.9136 54.3147 20.406 53.8071 19.4923C53.5026 18.9846 53.2995 18.4771 53.2995 17.868C53.2995 16.142 54.6192 14.8223 56.3452 14.8223Z" fill="#FFE079"/>
<path d="M56.3452 0.609131C58.0711 0.609131 59.3909 1.92889 59.3909 3.65482C59.3909 5.38074 58.0711 6.7005 56.3452 6.7005C55.4315 6.7005 54.6192 6.29445 54.0101 5.58371C53.6041 5.07606 53.2995 4.36544 53.2995 3.65482C53.2995 1.92889 54.6192 0.609131 56.3452 0.609131Z" fill="#80D6FA"/>
<path d="M2.53803 60C2.43655 60 2.23346 59.8985 2.13198 59.7969C2.0305 59.6954 2.0305 59.5938 2.0305 59.4923C2.0305 59.3909 2.13198 59.1878 2.23358 59.0863L11.4721 51.8781L13.9087 50.0507C14.1118 49.8476 14.4163 49.9492 14.6193 50.1522C14.7208 50.2537 14.7208 50.3553 14.7208 50.4568C14.7208 50.5583 14.6193 50.7613 14.5177 50.8628L12.5888 52.3857C16.6497 55.4314 21.6244 57.0557 26.802 57.0557C27.1066 57.0557 27.3097 57.2588 27.3097 57.5633C27.3097 57.8679 27.1066 58.071 26.802 58.071C21.2183 58.071 16.0406 56.3451 11.7767 52.9948L2.84272 59.9999L2.53803 60ZM30.9645 57.6649C30.7614 57.6649 30.5585 57.4618 30.4569 57.2589V56.9543C33.8071 47.5127 33.604 37.2588 30.2538 28.2234H30.0507C20.3045 28.2234 10.8629 31.5736 3.35013 37.7665C3.6547 39.2893 4.06075 40.7107 4.66989 42.1319C4.77138 42.4365 4.66989 42.6396 4.36532 42.8426C4.06076 42.944 3.85767 42.8426 3.6547 42.538C2.43643 39.5938 1.82729 36.4466 1.82729 33.1978C1.82729 32.3856 1.82729 31.4719 1.92878 30.6598V30.5583C2.23334 27.5126 3.14705 24.5684 4.56841 21.8273L4.66989 21.7258L4.77138 21.6244C10.2536 18.4772 16.5481 16.6498 23.2486 16.2436C21.7257 14.4162 19.9998 12.5888 18.1724 10.9645C15.1267 12.1827 12.2841 14.0102 9.84756 16.3452C9.64447 16.5483 9.3399 16.5483 9.13694 16.3452C8.93397 16.1421 8.93385 15.8376 9.13694 15.6346C13.8069 10.9646 20.1014 8.32495 26.7004 8.32495C29.137 8.32495 31.675 8.731 33.9086 9.44174H34.0101C39.1877 11.0661 43.8577 14.3148 47.1065 18.8834C47.3096 19.0865 47.208 19.391 47.005 19.594C46.8019 19.7971 46.4974 19.6955 46.2944 19.4925C43.5533 15.5331 39.6954 12.5889 35.3299 10.9646C44.2639 22.7413 46.599 38.0712 41.5228 51.9799C47.1065 47.6144 50.5584 40.8123 50.5584 33.1981C50.5584 30.0509 49.9492 26.9036 48.731 24.061L46.2944 25.9899C46.0913 26.193 45.7868 26.0914 45.5838 25.8884C45.4823 25.787 45.4823 25.6854 45.4823 25.5839C45.4823 25.4824 45.5838 25.2793 45.6854 25.1778L48.6295 22.8426H48.731L52.9949 19.4924C52.7919 19.0863 52.6904 18.5787 52.6904 17.9695C52.6904 16.0406 54.3147 14.4162 56.2437 14.4162C58.1727 14.4162 59.797 16.0405 59.797 17.9695C59.797 19.8986 58.1727 21.5229 56.2437 21.5229C55.2285 21.5229 54.2132 21.0152 53.6041 20.3046L49.6447 23.3503C50.9644 26.4975 51.6752 29.7462 51.6752 33.198C51.7766 45.2792 43.0456 55.6346 30.9645 57.6649C31.066 57.6649 31.066 57.6649 30.9645 57.6649ZM31.1675 27.6143C34.6192 36.7513 34.9238 46.9036 31.6751 56.4468C32.8934 56.2437 34.0102 55.8376 35.0254 55.5331C41.4213 39.594 37.3604 21.1168 24.8731 9.34014C22.9442 9.44162 21.1168 9.84779 19.2894 10.4569C21.3199 12.1829 23.0457 14.1118 24.6702 16.1423L24.7717 16.2437C26.0914 17.9697 27.3097 19.7971 28.325 21.726C28.4265 21.8275 28.4265 21.8275 28.4265 21.9291C29.3402 23.655 30.2539 25.4824 30.9645 27.3098C31.1675 27.4112 31.1675 27.5126 31.1675 27.6143ZM26.396 9.23854C38.3756 21.1167 42.335 39.1877 36.4467 55.0253C37.7665 54.4162 38.9848 53.807 40.203 52.9948C46.0913 38.6801 43.6548 22.3349 33.7056 10.2537C31.3706 9.54311 28.934 9.23854 26.396 9.23854ZM3.04569 33.0965C3.04569 34.2133 3.14717 35.4316 3.24877 36.5482C10.7615 30.5583 20.2031 27.2081 29.9493 27.2081C29.3402 25.6852 28.6295 24.1624 27.8173 22.6396C18.9849 22.741 10.2538 25.6852 3.14729 30.8629C3.04569 31.5736 3.04569 32.3857 3.04569 33.0965ZM5.58372 22.335C4.46693 24.5684 3.65482 27.005 3.24865 29.4415C10.1522 24.5684 18.5786 21.7258 27.2081 21.5228C26.2944 19.9999 25.2791 18.4771 24.1624 16.9542C17.5635 17.3604 11.1676 19.1878 5.58372 22.335ZM56.3452 15.3299C54.9238 15.3299 53.8071 16.4467 53.8071 17.8679C53.8071 19.2893 54.9239 20.406 56.3452 20.406C57.7665 20.406 58.8832 19.2892 58.8832 17.8679C58.8832 16.4467 57.7665 15.3299 56.3452 15.3299ZM0.507654 51.8781C0.406171 51.8781 0.203085 51.7766 0.101602 51.675C0.000118971 51.5734 0 51.4721 0 51.3706C0 51.2691 0.101483 51.066 0.203085 50.9645L5.8884 45.99C5.8884 45.8885 5.98989 45.6854 6.09149 45.6854C6.19297 45.5839 6.29457 45.5839 6.39606 45.5839L12.4874 40.3048C12.6905 40.1017 12.9951 40.1017 13.198 40.3048C13.2995 40.4062 13.2995 40.5079 13.2995 40.6093C13.2995 40.7108 13.198 40.9139 13.0964 41.0154L7.10656 46.1931L9.44162 49.2387C9.64471 49.4418 9.54311 49.7464 9.34014 49.9494C9.13706 50.1524 8.83249 50.1524 8.62952 49.9494C7.71581 48.9342 6.90359 48.0205 6.29446 47.0052L0.812222 51.7766C0.71062 51.8781 0.609137 51.8781 0.507654 51.8781ZM46.1929 12.7919C46.0914 12.7919 45.8884 12.6904 45.7869 12.5888C45.6853 12.4873 45.6853 12.3857 45.6853 12.2842C45.6853 12.1827 45.7868 11.9797 45.8884 11.8782L53.4011 5.48223C53.0965 4.97458 52.8934 4.26396 52.8934 3.55334C52.8934 1.62433 54.5178 0 56.4467 0C58.3756 0 60 1.62433 60 3.55334C60 5.48235 58.3757 7.10668 56.4467 7.10668C55.533 7.10668 54.7207 6.80211 54.1116 6.19297L46.5989 12.5889C46.3959 12.7919 46.2944 12.7919 46.1929 12.7919ZM56.3452 1.11679C54.9238 1.11679 53.8071 2.23358 53.8071 3.65482C53.8071 5.07606 54.9239 6.19285 56.3452 6.19285C57.7665 6.19285 58.8832 5.07606 58.8832 3.65482C58.8832 2.23358 57.7665 1.11679 56.3452 1.11679Z" fill="#BF8B70"/>
</g>
<mask id="path-5-outside-1_158_27" maskUnits="userSpaceOnUse" x="65" y="6" width="65" height="25" fill="black">
<rect fill="white" x="65" y="6" width="65" height="25"/>
<path d="M66.9176 25V7.54545H77.7415V9.8125H69.5511V15.1307H76.9659V17.3892H69.5511V25H66.9176ZM87.3767 25.2642C86.0869 25.2642 84.9761 24.9886 84.0443 24.4375C83.1182 23.8807 82.4022 23.0994 81.8966 22.0938C81.3966 21.0824 81.1466 19.8977 81.1466 18.5398C81.1466 17.1989 81.3966 16.017 81.8966 14.9943C82.4022 13.9716 83.1068 13.1733 84.0102 12.5994C84.9193 12.0256 85.9818 11.7386 87.1977 11.7386C87.9363 11.7386 88.6522 11.8608 89.3454 12.1051C90.0386 12.3494 90.6608 12.733 91.2119 13.2557C91.763 13.7784 92.1977 14.4574 92.5159 15.2926C92.8341 16.1222 92.9932 17.1307 92.9932 18.3182V19.2216H82.5869V17.3125H90.496C90.496 16.642 90.3596 16.0483 90.0869 15.5312C89.8142 15.0085 89.4307 14.5966 88.9363 14.2955C88.4477 13.9943 87.8738 13.8438 87.2147 13.8438C86.4988 13.8438 85.8738 14.0199 85.3397 14.3722C84.8113 14.7187 84.4022 15.1733 84.1125 15.7358C83.8284 16.2926 83.6863 16.8977 83.6863 17.5511V19.0426C83.6863 19.9176 83.8397 20.6619 84.1466 21.2756C84.4591 21.8892 84.8937 22.358 85.4505 22.6818C86.0074 23 86.6579 23.1591 87.4022 23.1591C87.8852 23.1591 88.3255 23.0909 88.7233 22.9545C89.121 22.8125 89.4647 22.6023 89.7545 22.3239C90.0443 22.0455 90.2659 21.7017 90.4193 21.2926L92.8312 21.7273C92.638 22.4375 92.2914 23.0597 91.7914 23.5938C91.2971 24.1222 90.675 24.5341 89.925 24.8295C89.1807 25.1193 88.3312 25.2642 87.3767 25.2642ZM100.289 7.54545V25H97.7406V7.54545H100.289ZM111.748 11.9091V13.9545H104.597V11.9091H111.748ZM106.515 8.77273H109.063V21.1562C109.063 21.6506 109.137 22.0227 109.285 22.2727C109.433 22.517 109.623 22.6847 109.856 22.7756C110.095 22.8608 110.353 22.9034 110.631 22.9034C110.836 22.9034 111.015 22.8892 111.168 22.8608C111.322 22.8324 111.441 22.8097 111.526 22.7926L111.987 24.8977C111.839 24.9545 111.629 25.0114 111.356 25.0682C111.083 25.1307 110.742 25.1648 110.333 25.1705C109.663 25.1818 109.038 25.0625 108.458 24.8125C107.879 24.5625 107.41 24.1761 107.052 23.6534C106.694 23.1307 106.515 22.4744 106.515 21.6847V8.77273ZM118.098 29.9091C117.717 29.9091 117.37 29.8778 117.058 29.8153C116.745 29.7585 116.512 29.696 116.359 29.6278L116.973 27.5398C117.439 27.6648 117.853 27.7188 118.217 27.7017C118.581 27.6847 118.902 27.5483 119.18 27.2926C119.464 27.0369 119.714 26.6193 119.93 26.0398L120.245 25.1705L115.456 11.9091H118.183L121.498 22.0682H121.635L124.95 11.9091H127.686L122.291 26.7472C122.041 27.429 121.723 28.0057 121.336 28.4773C120.95 28.9545 120.49 29.3125 119.956 29.5511C119.421 29.7898 118.802 29.9091 118.098 29.9091Z"/>
</mask>
<path d="M66.9176 25V7.54545H77.7415V9.8125H69.5511V15.1307H76.9659V17.3892H69.5511V25H66.9176ZM87.3767 25.2642C86.0869 25.2642 84.9761 24.9886 84.0443 24.4375C83.1182 23.8807 82.4022 23.0994 81.8966 22.0938C81.3966 21.0824 81.1466 19.8977 81.1466 18.5398C81.1466 17.1989 81.3966 16.017 81.8966 14.9943C82.4022 13.9716 83.1068 13.1733 84.0102 12.5994C84.9193 12.0256 85.9818 11.7386 87.1977 11.7386C87.9363 11.7386 88.6522 11.8608 89.3454 12.1051C90.0386 12.3494 90.6608 12.733 91.2119 13.2557C91.763 13.7784 92.1977 14.4574 92.5159 15.2926C92.8341 16.1222 92.9932 17.1307 92.9932 18.3182V19.2216H82.5869V17.3125H90.496C90.496 16.642 90.3596 16.0483 90.0869 15.5312C89.8142 15.0085 89.4307 14.5966 88.9363 14.2955C88.4477 13.9943 87.8738 13.8438 87.2147 13.8438C86.4988 13.8438 85.8738 14.0199 85.3397 14.3722C84.8113 14.7187 84.4022 15.1733 84.1125 15.7358C83.8284 16.2926 83.6863 16.8977 83.6863 17.5511V19.0426C83.6863 19.9176 83.8397 20.6619 84.1466 21.2756C84.4591 21.8892 84.8937 22.358 85.4505 22.6818C86.0074 23 86.6579 23.1591 87.4022 23.1591C87.8852 23.1591 88.3255 23.0909 88.7233 22.9545C89.121 22.8125 89.4647 22.6023 89.7545 22.3239C90.0443 22.0455 90.2659 21.7017 90.4193 21.2926L92.8312 21.7273C92.638 22.4375 92.2914 23.0597 91.7914 23.5938C91.2971 24.1222 90.675 24.5341 89.925 24.8295C89.1807 25.1193 88.3312 25.2642 87.3767 25.2642ZM100.289 7.54545V25H97.7406V7.54545H100.289ZM111.748 11.9091V13.9545H104.597V11.9091H111.748ZM106.515 8.77273H109.063V21.1562C109.063 21.6506 109.137 22.0227 109.285 22.2727C109.433 22.517 109.623 22.6847 109.856 22.7756C110.095 22.8608 110.353 22.9034 110.631 22.9034C110.836 22.9034 111.015 22.8892 111.168 22.8608C111.322 22.8324 111.441 22.8097 111.526 22.7926L111.987 24.8977C111.839 24.9545 111.629 25.0114 111.356 25.0682C111.083 25.1307 110.742 25.1648 110.333 25.1705C109.663 25.1818 109.038 25.0625 108.458 24.8125C107.879 24.5625 107.41 24.1761 107.052 23.6534C106.694 23.1307 106.515 22.4744 106.515 21.6847V8.77273ZM118.098 29.9091C117.717 29.9091 117.37 29.8778 117.058 29.8153C116.745 29.7585 116.512 29.696 116.359 29.6278L116.973 27.5398C117.439 27.6648 117.853 27.7188 118.217 27.7017C118.581 27.6847 118.902 27.5483 119.18 27.2926C119.464 27.0369 119.714 26.6193 119.93 26.0398L120.245 25.1705L115.456 11.9091H118.183L121.498 22.0682H121.635L124.95 11.9091H127.686L122.291 26.7472C122.041 27.429 121.723 28.0057 121.336 28.4773C120.95 28.9545 120.49 29.3125 119.956 29.5511C119.421 29.7898 118.802 29.9091 118.098 29.9091Z" fill="#F7F2EC"/>
<path d="M66.9176 25H65.9176V26H66.9176V25ZM66.9176 7.54545V6.54545H65.9176V7.54545H66.9176ZM77.7415 7.54545H78.7415V6.54545H77.7415V7.54545ZM77.7415 9.8125V10.8125H78.7415V9.8125H77.7415ZM69.5511 9.8125V8.8125H68.5511V9.8125H69.5511ZM69.5511 15.1307H68.5511V16.1307H69.5511V15.1307ZM76.9659 15.1307H77.9659V14.1307H76.9659V15.1307ZM76.9659 17.3892V18.3892H77.9659V17.3892H76.9659ZM69.5511 17.3892V16.3892H68.5511V17.3892H69.5511ZM69.5511 25V26H70.5511V25H69.5511ZM66.9176 25H67.9176V7.54545H66.9176H65.9176V25H66.9176ZM66.9176 7.54545V8.54545H77.7415V7.54545V6.54545H66.9176V7.54545ZM77.7415 7.54545H76.7415V9.8125H77.7415H78.7415V7.54545H77.7415ZM77.7415 9.8125V8.8125H69.5511V9.8125V10.8125H77.7415V9.8125ZM69.5511 9.8125H68.5511V15.1307H69.5511H70.5511V9.8125H69.5511ZM69.5511 15.1307V16.1307H76.9659V15.1307V14.1307H69.5511V15.1307ZM76.9659 15.1307H75.9659V17.3892H76.9659H77.9659V15.1307H76.9659ZM76.9659 17.3892V16.3892H69.5511V17.3892V18.3892H76.9659V17.3892ZM69.5511 17.3892H68.5511V25H69.5511H70.5511V17.3892H69.5511ZM69.5511 25V24H66.9176V25V26H69.5511V25ZM84.0443 24.4375L83.529 25.2945L83.5352 25.2982L84.0443 24.4375ZM81.8966 22.0938L81.0001 22.5369L81.0031 22.543L81.8966 22.0938ZM81.8966 14.9943L81.0001 14.5511L80.9982 14.5551L81.8966 14.9943ZM84.0102 12.5994L83.4764 11.7538L83.474 11.7553L84.0102 12.5994ZM89.3454 12.1051L89.6778 11.162V11.162L89.3454 12.1051ZM91.2119 13.2557L90.5237 13.9812V13.9812L91.2119 13.2557ZM92.5159 15.2926L91.5814 15.6486L91.5822 15.6507L92.5159 15.2926ZM92.9932 19.2216V20.2216H93.9932V19.2216H92.9932ZM82.5869 19.2216H81.5869V20.2216H82.5869V19.2216ZM82.5869 17.3125V16.3125H81.5869V17.3125H82.5869ZM90.496 17.3125V18.3125H91.496V17.3125H90.496ZM90.0869 15.5312L89.2003 15.9938L89.2024 15.9978L90.0869 15.5312ZM88.9363 14.2955L88.4117 15.1468L88.4161 15.1495L88.9363 14.2955ZM85.3397 14.3722L85.8882 15.2083L85.8903 15.2069L85.3397 14.3722ZM84.1125 15.7358L83.2235 15.2778L83.2217 15.2813L84.1125 15.7358ZM84.1466 21.2756L83.2521 21.7228L83.2555 21.7294L84.1466 21.2756ZM85.4505 22.6818L84.9478 23.5463L84.9544 23.5501L85.4505 22.6818ZM88.7233 22.9545L89.0476 23.9006L89.0596 23.8963L88.7233 22.9545ZM89.7545 22.3239L89.0617 21.6028V21.6028L89.7545 22.3239ZM90.4193 21.2926L90.5966 20.3085L89.7758 20.1605L89.483 20.9415L90.4193 21.2926ZM92.8312 21.7273L93.7962 21.9897L94.0826 20.9367L93.0086 20.7431L92.8312 21.7273ZM91.7914 23.5938L91.0614 22.9103L91.0612 22.9106L91.7914 23.5938ZM89.925 24.8295L90.2878 25.7614L90.2915 25.76L89.925 24.8295ZM87.3767 25.2642V24.2642C86.2316 24.2642 85.3039 24.0207 84.5534 23.5768L84.0443 24.4375L83.5352 25.2982C84.6484 25.9566 85.9423 26.2642 87.3767 26.2642V25.2642ZM84.0443 24.4375L84.5596 23.5805C83.8025 23.1253 83.2144 22.4886 82.79 21.6445L81.8966 22.0938L81.0031 22.543C81.5901 23.7102 82.4339 24.6361 83.529 25.2945L84.0443 24.4375ZM81.8966 22.0938L82.793 21.6506C82.3736 20.8023 82.1466 19.7749 82.1466 18.5398H81.1466H80.1466C80.1466 20.0205 80.4195 21.3625 81.0001 22.5369L81.8966 22.0938ZM81.1466 18.5398H82.1466C82.1466 17.3242 82.3727 16.2972 82.7949 15.4335L81.8966 14.9943L80.9982 14.5551C80.4204 15.7369 80.1466 17.0735 80.1466 18.5398H81.1466ZM81.8966 14.9943L82.793 15.4375C83.2231 14.5676 83.8078 13.9127 84.5464 13.4435L84.0102 12.5994L83.474 11.7553C82.4058 12.4339 81.5814 13.3756 81.0002 14.5511L81.8966 14.9943ZM84.0102 12.5994L84.544 13.445C85.2731 12.9848 86.1453 12.7386 87.1977 12.7386V11.7386V10.7386C85.8183 10.7386 84.5655 11.0663 83.4764 11.7538L84.0102 12.5994ZM87.1977 11.7386V12.7386C87.8237 12.7386 88.4272 12.8418 89.013 13.0482L89.3454 12.1051L89.6778 11.162C88.8773 10.8798 88.049 10.7386 87.1977 10.7386V11.7386ZM89.3454 12.1051L89.013 13.0482C89.5692 13.2443 90.0711 13.5519 90.5237 13.9812L91.2119 13.2557L91.9001 12.5301C91.2505 11.914 90.5081 11.4546 89.6778 11.162L89.3454 12.1051ZM91.2119 13.2557L90.5237 13.9812C90.9485 14.3841 91.3072 14.9289 91.5814 15.6486L92.5159 15.2926L93.4504 14.9366C93.0882 13.9859 92.5776 13.1727 91.9001 12.5301L91.2119 13.2557ZM92.5159 15.2926L91.5822 15.6507C91.8445 16.3346 91.9932 17.2143 91.9932 18.3182H92.9932H93.9932C93.9932 17.047 93.8236 15.9097 93.4496 14.9345L92.5159 15.2926ZM92.9932 18.3182H91.9932V19.2216H92.9932H93.9932V18.3182H92.9932ZM92.9932 19.2216V18.2216H82.5869V19.2216V20.2216H92.9932V19.2216ZM82.5869 19.2216H83.5869V17.3125H82.5869H81.5869V19.2216H82.5869ZM82.5869 17.3125V18.3125H90.496V17.3125V16.3125H82.5869V17.3125ZM90.496 17.3125H91.496C91.496 16.5035 91.3305 15.7454 90.9714 15.0647L90.0869 15.5312L89.2024 15.9978C89.3888 16.3512 89.496 16.7806 89.496 17.3125H90.496ZM90.0869 15.5312L90.9735 15.0687C90.6182 14.3877 90.1094 13.8391 89.4566 13.4414L88.9363 14.2955L88.4161 15.1495C88.7519 15.3541 89.0101 15.6293 89.2003 15.9938L90.0869 15.5312ZM88.9363 14.2955L89.461 13.4441C88.7923 13.0321 88.0311 12.8438 87.2147 12.8438V13.8438V14.8438C87.7166 14.8438 88.1031 14.9566 88.4117 15.1468L88.9363 14.2955ZM87.2147 13.8438V12.8438C86.3272 12.8438 85.5057 13.0648 84.7892 13.5374L85.3397 14.3722L85.8903 15.2069C86.242 14.975 86.6705 14.8438 87.2147 14.8438V13.8438ZM85.3397 14.3722L84.7913 13.536C84.1185 13.9773 83.5921 14.5622 83.2235 15.2778L84.1125 15.7358L85.0014 16.1938C85.2123 15.7844 85.5042 15.4602 85.8882 15.2083L85.3397 14.3722ZM84.1125 15.7358L83.2217 15.2813C82.8625 15.9853 82.6863 16.7471 82.6863 17.5511H83.6863H84.6863C84.6863 17.0483 84.7942 16.5999 85.0032 16.1903L84.1125 15.7358ZM83.6863 17.5511H82.6863V19.0426H83.6863H84.6863V17.5511H83.6863ZM83.6863 19.0426H82.6863C82.6863 20.0314 82.8595 20.9374 83.2521 21.7228L84.1466 21.2756L85.041 20.8284C84.82 20.3865 84.6863 19.8039 84.6863 19.0426H83.6863ZM84.1466 21.2756L83.2555 21.7294C83.6489 22.502 84.2131 23.1189 84.9478 23.5462L85.4505 22.6818L85.9533 21.8174C85.5743 21.597 85.2692 21.2764 85.0377 20.8218L84.1466 21.2756ZM85.4505 22.6818L84.9544 23.5501C85.6851 23.9676 86.5121 24.1591 87.4022 24.1591V23.1591V22.1591C86.8037 22.1591 86.3296 22.0324 85.9467 21.8136L85.4505 22.6818ZM87.4022 23.1591V24.1591C87.9794 24.1591 88.5312 24.0775 89.0476 23.9005L88.7233 22.9545L88.3989 22.0086C88.1198 22.1043 87.791 22.1591 87.4022 22.1591V23.1591ZM88.7233 22.9545L89.0596 23.8963C89.5835 23.7092 90.0505 23.4263 90.4473 23.045L89.7545 22.3239L89.0617 21.6028C88.879 21.7783 88.6585 21.9158 88.3869 22.0128L88.7233 22.9545ZM89.7545 22.3239L90.4473 23.045C90.8541 22.6542 91.1544 22.1804 91.3556 21.6437L90.4193 21.2926L89.483 20.9415C89.3774 21.223 89.2345 21.4367 89.0617 21.6028L89.7545 22.3239ZM90.4193 21.2926L90.2419 22.2768L92.6539 22.7114L92.8312 21.7273L93.0086 20.7431L90.5966 20.3085L90.4193 21.2926ZM92.8312 21.7273L91.8663 21.4648C91.7156 22.0187 91.4493 22.496 91.0614 22.9103L91.7914 23.5938L92.5215 24.2772C93.1336 23.6233 93.5604 22.8563 93.7962 21.9897L92.8312 21.7273ZM91.7914 23.5938L91.0612 22.9106C90.6793 23.3188 90.1862 23.6518 89.5584 23.8991L89.925 24.8295L90.2915 25.76C91.1637 25.4164 91.915 24.9255 92.5217 24.2769L91.7914 23.5938ZM89.925 24.8295L89.5622 23.8977C88.9537 24.1346 88.2308 24.2642 87.3767 24.2642V25.2642V26.2642C88.4317 26.2642 89.4076 26.1041 90.2878 25.7614L89.925 24.8295ZM100.289 7.54545H101.289V6.54545H100.289V7.54545ZM100.289 25V26H101.289V25H100.289ZM97.7406 25H96.7406V26H97.7406V25ZM97.7406 7.54545V6.54545H96.7406V7.54545H97.7406ZM100.289 7.54545H99.2889V25H100.289H101.289V7.54545H100.289ZM100.289 25V24H97.7406V25V26H100.289V25ZM97.7406 25H98.7406V7.54545H97.7406H96.7406V25H97.7406ZM97.7406 7.54545V8.54545H100.289V7.54545V6.54545H97.7406V7.54545ZM111.748 11.9091H112.748V10.9091H111.748V11.9091ZM111.748 13.9545V14.9545H112.748V13.9545H111.748ZM104.597 13.9545H103.597V14.9545H104.597V13.9545ZM104.597 11.9091V10.9091H103.597V11.9091H104.597ZM106.515 8.77273V7.77273H105.515V8.77273H106.515ZM109.063 8.77273H110.063V7.77273H109.063V8.77273ZM109.285 22.2727L108.424 22.7815L108.429 22.7901L109.285 22.2727ZM109.856 22.7756L109.492 23.7071L109.506 23.7124L109.52 23.7173L109.856 22.7756ZM111.168 22.8608L111.35 23.8441V23.8441L111.168 22.8608ZM111.526 22.7926L112.503 22.579L112.293 21.6194L111.33 21.812L111.526 22.7926ZM111.987 24.8977L112.346 25.8311L113.147 25.5229L112.963 24.6841L111.987 24.8977ZM111.356 25.0682L111.152 24.0892L111.142 24.0912L111.133 24.0934L111.356 25.0682ZM110.333 25.1705L110.319 24.1705L110.316 24.1706L110.333 25.1705ZM108.458 24.8125L108.062 25.7307V25.7307L108.458 24.8125ZM107.052 23.6534L106.227 24.2184V24.2184L107.052 23.6534ZM111.748 11.9091H110.748V13.9545H111.748H112.748V11.9091H111.748ZM111.748 13.9545V12.9545H104.597V13.9545V14.9545H111.748V13.9545ZM104.597 13.9545H105.597V11.9091H104.597H103.597V13.9545H104.597ZM104.597 11.9091V12.9091H111.748V11.9091V10.9091H104.597V11.9091ZM106.515 8.77273V9.77273H109.063V8.77273V7.77273H106.515V8.77273ZM109.063 8.77273H108.063V21.1562H109.063H110.063V8.77273H109.063ZM109.063 21.1562H108.063C108.063 21.7189 108.142 22.304 108.424 22.7815L109.285 22.2727L110.146 21.764C110.132 21.7415 110.063 21.5823 110.063 21.1562H109.063ZM109.285 22.2727L108.429 22.7901C108.674 23.195 109.026 23.525 109.492 23.7071L109.856 22.7756L110.219 21.844C110.213 21.8417 110.208 21.8388 110.199 21.8312C110.189 21.8226 110.168 21.8011 110.141 21.7553L109.285 22.2727ZM109.856 22.7756L109.52 23.7173C109.876 23.8447 110.25 23.9034 110.631 23.9034V22.9034V21.9034C110.456 21.9034 110.313 21.8769 110.192 21.8338L109.856 22.7756ZM110.631 22.9034V23.9034C110.879 23.9034 111.122 23.8864 111.35 23.8441L111.168 22.8608L110.986 21.8775C110.908 21.892 110.793 21.9034 110.631 21.9034V22.9034ZM111.168 22.8608L111.35 23.8441C111.506 23.8154 111.63 23.7916 111.722 23.7732L111.526 22.7926L111.33 21.812C111.252 21.8277 111.138 21.8494 110.986 21.8775L111.168 22.8608ZM111.526 22.7926L110.549 23.0062L111.01 25.1113L111.987 24.8977L112.963 24.6841L112.503 22.579L111.526 22.7926ZM111.987 24.8977L111.628 23.9644C111.554 23.9926 111.405 24.0365 111.152 24.0892L111.356 25.0682L111.56 26.0472C111.852 25.9863 112.123 25.9165 112.346 25.8311L111.987 24.8977ZM111.356 25.0682L111.133 24.0934C110.952 24.1348 110.687 24.1654 110.319 24.1706L110.333 25.1705L110.347 26.1704C110.797 26.1641 111.214 26.1266 111.579 26.0429L111.356 25.0682ZM110.333 25.1705L110.316 24.1706C109.779 24.1797 109.295 24.0846 108.854 23.8943L108.458 24.8125L108.062 25.7307C108.78 26.0404 109.547 26.1839 110.35 26.1703L110.333 25.1705ZM108.458 24.8125L108.854 23.8943C108.449 23.7194 108.129 23.4559 107.877 23.0884L107.052 23.6534L106.227 24.2184C106.691 24.8964 107.308 25.4056 108.062 25.7307L108.458 24.8125ZM107.052 23.6534L107.877 23.0884C107.658 22.769 107.515 22.3228 107.515 21.6847H106.515H105.515C105.515 22.6261 105.73 23.4923 106.227 24.2184L107.052 23.6534ZM106.515 21.6847H107.515V8.77273H106.515H105.515V21.6847H106.515ZM117.058 29.8153L117.254 28.8348L117.245 28.833L117.237 28.8315L117.058 29.8153ZM116.359 29.6278L115.4 29.3459L115.153 30.186L115.953 30.5417L116.359 29.6278ZM116.973 27.5398L117.232 26.5739L116.289 26.3209L116.013 27.2578L116.973 27.5398ZM118.217 27.7017L118.17 26.7028V26.7028L118.217 27.7017ZM119.18 27.2926L118.511 26.5493L118.504 26.5561L119.18 27.2926ZM119.93 26.0398L120.867 26.3889L120.87 26.3808L119.93 26.0398ZM120.245 25.1705L121.185 25.5115L121.309 25.1712L121.186 24.8308L120.245 25.1705ZM115.456 11.9091V10.9091H114.031L114.515 12.2488L115.456 11.9091ZM118.183 11.9091L119.133 11.5989L118.908 10.9091H118.183V11.9091ZM121.498 22.0682L120.548 22.3784L120.773 23.0682H121.498V22.0682ZM121.635 22.0682V23.0682H122.36L122.585 22.3784L121.635 22.0682ZM124.95 11.9091V10.9091H124.224L123.999 11.5989L124.95 11.9091ZM127.686 11.9091L128.625 12.2508L129.113 10.9091H127.686V11.9091ZM122.291 26.7472L123.23 27.0914L123.231 27.0889L122.291 26.7472ZM121.336 28.4773L120.563 27.8435L120.559 27.8481L121.336 28.4773ZM119.956 29.5511L119.548 28.6381V28.6381L119.956 29.5511ZM118.098 29.9091V28.9091C117.771 28.9091 117.491 28.8821 117.254 28.8348L117.058 29.8153L116.862 30.7959C117.25 30.8735 117.663 30.9091 118.098 30.9091V29.9091ZM117.058 29.8153L117.237 28.8315C116.946 28.7787 116.808 28.7329 116.765 28.714L116.359 29.6278L115.953 30.5417C116.217 30.6592 116.544 30.7384 116.879 30.7992L117.058 29.8153ZM116.359 29.6278L117.318 29.9098L117.932 27.8217L116.973 27.5398L116.013 27.2578L115.4 29.3459L116.359 29.6278ZM116.973 27.5398L116.713 28.5056C117.249 28.6492 117.77 28.7238 118.264 28.7006L118.217 27.7017L118.17 26.7028C117.937 26.7137 117.628 26.6803 117.232 26.5739L116.973 27.5398ZM118.217 27.7017L118.264 28.7006C118.871 28.6721 119.413 28.4368 119.856 28.0291L119.18 27.2926L118.504 26.5561C118.391 26.6598 118.29 26.6972 118.17 26.7028L118.217 27.7017ZM119.18 27.2926L119.849 28.0359C120.305 27.6255 120.626 27.0363 120.867 26.3889L119.93 26.0398L118.993 25.6907C118.802 26.2023 118.623 26.4484 118.511 26.5493L119.18 27.2926ZM119.93 26.0398L120.87 26.3808L121.185 25.5115L120.245 25.1705L119.305 24.8295L118.99 25.6988L119.93 26.0398ZM120.245 25.1705L121.186 24.8308L116.396 11.5694L115.456 11.9091L114.515 12.2488L119.305 25.5102L120.245 25.1705ZM115.456 11.9091V12.9091H118.183V11.9091V10.9091H115.456V11.9091ZM118.183 11.9091L117.232 12.2193L120.548 22.3784L121.498 22.0682L122.449 21.7579L119.133 11.5989L118.183 11.9091ZM121.498 22.0682V23.0682H121.635V22.0682V21.0682H121.498V22.0682ZM121.635 22.0682L122.585 22.3784L125.901 12.2193L124.95 11.9091L123.999 11.5989L120.684 21.7579L121.635 22.0682ZM124.95 11.9091V12.9091H127.686V11.9091V10.9091H124.95V11.9091ZM127.686 11.9091L126.746 11.5674L121.351 26.4055L122.291 26.7472L123.231 27.0889L128.625 12.2508L127.686 11.9091ZM122.291 26.7472L121.352 26.4029C121.133 26.9992 120.866 27.4733 120.563 27.8435L121.336 28.4773L122.11 29.111C122.579 28.5381 122.948 27.8588 123.23 27.0914L122.291 26.7472ZM121.336 28.4773L120.559 27.8481C120.267 28.2093 119.931 28.4669 119.548 28.6381L119.956 29.5511L120.364 30.4641C121.049 30.1581 121.633 29.6998 122.113 29.1065L121.336 28.4773ZM119.956 29.5511L119.548 28.6381C119.165 28.8089 118.69 28.9091 118.098 28.9091V29.9091V30.9091C118.915 30.9091 119.678 30.7706 120.364 30.4641L119.956 29.5511Z" fill="#BF8B70" mask="url(#path-5-outside-1_158_27)"/>
<mask id="path-7-outside-2_158_27" maskUnits="userSpaceOnUse" x="65" y="33" width="59" height="25" fill="black">
<rect fill="white" x="65" y="33" width="59" height="25"/>
<path d="M66.1591 36.4205V34.5455H79.25V36.4205H73.7614V52H71.6477V36.4205H66.1591ZM87.5791 52.2727C86.3973 52.2727 85.3603 51.9915 84.4683 51.429C83.5819 50.8665 82.8888 50.0795 82.3888 49.0682C81.8944 48.0568 81.6473 46.875 81.6473 45.5227C81.6473 44.1591 81.8944 42.9687 82.3888 41.9517C82.8888 40.9347 83.5819 40.1449 84.4683 39.5824C85.3603 39.0199 86.3973 38.7386 87.5791 38.7386C88.7609 38.7386 89.795 39.0199 90.6814 39.5824C91.5734 40.1449 92.2666 40.9347 92.7609 41.9517C93.2609 42.9687 93.5109 44.1591 93.5109 45.5227C93.5109 46.875 93.2609 48.0568 92.7609 49.0682C92.2666 50.0795 91.5734 50.8665 90.6814 51.429C89.795 51.9915 88.7609 52.2727 87.5791 52.2727ZM87.5791 50.4659C88.4768 50.4659 89.2155 50.2358 89.795 49.7756C90.3745 49.3153 90.8035 48.7102 91.0819 47.9602C91.3603 47.2102 91.4995 46.3977 91.4995 45.5227C91.4995 44.6477 91.3603 43.8324 91.0819 43.0767C90.8035 42.321 90.3745 41.7102 89.795 41.2443C89.2155 40.7784 88.4768 40.5455 87.5791 40.5455C86.6814 40.5455 85.9427 40.7784 85.3632 41.2443C84.7836 41.7102 84.3547 42.321 84.0763 43.0767C83.7978 43.8324 83.6586 44.6477 83.6586 45.5227C83.6586 46.3977 83.7978 47.2102 84.0763 47.9602C84.3547 48.7102 84.7836 49.3153 85.3632 49.7756C85.9427 50.2358 86.6814 50.4659 87.5791 50.4659ZM99.3279 56.9091C98.987 56.9091 98.683 56.8807 98.416 56.8239C98.1489 56.7727 97.9643 56.7216 97.862 56.6705L98.3734 54.8977C98.862 55.0227 99.2938 55.0682 99.6688 55.0341C100.044 55 100.376 54.8324 100.666 54.5312C100.961 54.2358 101.231 53.7557 101.476 53.0909L101.851 52.0682L97.0097 38.9091H99.1916L102.805 49.3409H102.942L106.555 38.9091H108.737L103.18 53.9091C102.93 54.5852 102.621 55.1449 102.251 55.5881C101.882 56.0369 101.453 56.3693 100.964 56.5852C100.481 56.8011 99.9359 56.9091 99.3279 56.9091ZM122.585 41.8409L120.778 42.3523C120.664 42.0511 120.497 41.7585 120.275 41.4744C120.059 41.1847 119.764 40.946 119.389 40.7585C119.014 40.571 118.533 40.4773 117.948 40.4773C117.147 40.4773 116.479 40.6619 115.945 41.0312C115.417 41.3949 115.153 41.858 115.153 42.4205C115.153 42.9205 115.335 43.3153 115.698 43.6051C116.062 43.8949 116.63 44.1364 117.403 44.3295L119.346 44.8068C120.516 45.0909 121.389 45.5256 121.962 46.1108C122.536 46.6903 122.823 47.4375 122.823 48.3523C122.823 49.1023 122.607 49.7727 122.175 50.3636C121.749 50.9545 121.153 51.4205 120.386 51.7614C119.619 52.1023 118.727 52.2727 117.71 52.2727C116.374 52.2727 115.269 51.983 114.394 51.4034C113.519 50.8239 112.965 49.9773 112.732 48.8636L114.641 48.3864C114.823 49.0909 115.167 49.6193 115.673 49.9716C116.184 50.3239 116.852 50.5 117.675 50.5C118.613 50.5 119.357 50.3011 119.908 49.9034C120.465 49.5 120.744 49.017 120.744 48.4545C120.744 48 120.585 47.6193 120.266 47.3125C119.948 47 119.46 46.767 118.8 46.6136L116.619 46.1023C115.42 45.8182 114.539 45.3778 113.977 44.7812C113.42 44.179 113.141 43.4261 113.141 42.5227C113.141 41.7841 113.349 41.1307 113.764 40.5625C114.184 39.9943 114.755 39.5483 115.477 39.2244C116.204 38.9006 117.028 38.7386 117.948 38.7386C119.244 38.7386 120.261 39.0227 120.999 39.5909C121.744 40.1591 122.272 40.9091 122.585 41.8409Z"/>
</mask>
<path d="M66.1591 36.4205V34.5455H79.25V36.4205H73.7614V52H71.6477V36.4205H66.1591ZM87.5791 52.2727C86.3973 52.2727 85.3603 51.9915 84.4683 51.429C83.5819 50.8665 82.8888 50.0795 82.3888 49.0682C81.8944 48.0568 81.6473 46.875 81.6473 45.5227C81.6473 44.1591 81.8944 42.9687 82.3888 41.9517C82.8888 40.9347 83.5819 40.1449 84.4683 39.5824C85.3603 39.0199 86.3973 38.7386 87.5791 38.7386C88.7609 38.7386 89.795 39.0199 90.6814 39.5824C91.5734 40.1449 92.2666 40.9347 92.7609 41.9517C93.2609 42.9687 93.5109 44.1591 93.5109 45.5227C93.5109 46.875 93.2609 48.0568 92.7609 49.0682C92.2666 50.0795 91.5734 50.8665 90.6814 51.429C89.795 51.9915 88.7609 52.2727 87.5791 52.2727ZM87.5791 50.4659C88.4768 50.4659 89.2155 50.2358 89.795 49.7756C90.3745 49.3153 90.8035 48.7102 91.0819 47.9602C91.3603 47.2102 91.4995 46.3977 91.4995 45.5227C91.4995 44.6477 91.3603 43.8324 91.0819 43.0767C90.8035 42.321 90.3745 41.7102 89.795 41.2443C89.2155 40.7784 88.4768 40.5455 87.5791 40.5455C86.6814 40.5455 85.9427 40.7784 85.3632 41.2443C84.7836 41.7102 84.3547 42.321 84.0763 43.0767C83.7978 43.8324 83.6586 44.6477 83.6586 45.5227C83.6586 46.3977 83.7978 47.2102 84.0763 47.9602C84.3547 48.7102 84.7836 49.3153 85.3632 49.7756C85.9427 50.2358 86.6814 50.4659 87.5791 50.4659ZM99.3279 56.9091C98.987 56.9091 98.683 56.8807 98.416 56.8239C98.1489 56.7727 97.9643 56.7216 97.862 56.6705L98.3734 54.8977C98.862 55.0227 99.2938 55.0682 99.6688 55.0341C100.044 55 100.376 54.8324 100.666 54.5312C100.961 54.2358 101.231 53.7557 101.476 53.0909L101.851 52.0682L97.0097 38.9091H99.1916L102.805 49.3409H102.942L106.555 38.9091H108.737L103.18 53.9091C102.93 54.5852 102.621 55.1449 102.251 55.5881C101.882 56.0369 101.453 56.3693 100.964 56.5852C100.481 56.8011 99.9359 56.9091 99.3279 56.9091ZM122.585 41.8409L120.778 42.3523C120.664 42.0511 120.497 41.7585 120.275 41.4744C120.059 41.1847 119.764 40.946 119.389 40.7585C119.014 40.571 118.533 40.4773 117.948 40.4773C117.147 40.4773 116.479 40.6619 115.945 41.0312C115.417 41.3949 115.153 41.858 115.153 42.4205C115.153 42.9205 115.335 43.3153 115.698 43.6051C116.062 43.8949 116.63 44.1364 117.403 44.3295L119.346 44.8068C120.516 45.0909 121.389 45.5256 121.962 46.1108C122.536 46.6903 122.823 47.4375 122.823 48.3523C122.823 49.1023 122.607 49.7727 122.175 50.3636C121.749 50.9545 121.153 51.4205 120.386 51.7614C119.619 52.1023 118.727 52.2727 117.71 52.2727C116.374 52.2727 115.269 51.983 114.394 51.4034C113.519 50.8239 112.965 49.9773 112.732 48.8636L114.641 48.3864C114.823 49.0909 115.167 49.6193 115.673 49.9716C116.184 50.3239 116.852 50.5 117.675 50.5C118.613 50.5 119.357 50.3011 119.908 49.9034C120.465 49.5 120.744 49.017 120.744 48.4545C120.744 48 120.585 47.6193 120.266 47.3125C119.948 47 119.46 46.767 118.8 46.6136L116.619 46.1023C115.42 45.8182 114.539 45.3778 113.977 44.7812C113.42 44.179 113.141 43.4261 113.141 42.5227C113.141 41.7841 113.349 41.1307 113.764 40.5625C114.184 39.9943 114.755 39.5483 115.477 39.2244C116.204 38.9006 117.028 38.7386 117.948 38.7386C119.244 38.7386 120.261 39.0227 120.999 39.5909C121.744 40.1591 122.272 40.9091 122.585 41.8409Z" fill="#F7F2EC"/>
<path d="M66.1591 36.4205H65.1591V37.4205H66.1591V36.4205ZM66.1591 34.5455V33.5455H65.1591V34.5455H66.1591ZM79.25 34.5455H80.25V33.5455H79.25V34.5455ZM79.25 36.4205V37.4205H80.25V36.4205H79.25ZM73.7614 36.4205V35.4205H72.7614V36.4205H73.7614ZM73.7614 52V53H74.7614V52H73.7614ZM71.6477 52H70.6477V53H71.6477V52ZM71.6477 36.4205H72.6477V35.4205H71.6477V36.4205ZM66.1591 36.4205H67.1591V34.5455H66.1591H65.1591V36.4205H66.1591ZM66.1591 34.5455V35.5455H79.25V34.5455V33.5455H66.1591V34.5455ZM79.25 34.5455H78.25V36.4205H79.25H80.25V34.5455H79.25ZM79.25 36.4205V35.4205H73.7614V36.4205V37.4205H79.25V36.4205ZM73.7614 36.4205H72.7614V52H73.7614H74.7614V36.4205H73.7614ZM73.7614 52V51H71.6477V52V53H73.7614V52ZM71.6477 52H72.6477V36.4205H71.6477H70.6477V52H71.6477ZM71.6477 36.4205V35.4205H66.1591V36.4205V37.4205H71.6477V36.4205ZM84.4683 51.429L83.9325 52.2733L83.9349 52.2749L84.4683 51.429ZM82.3888 49.0682L81.4903 49.5073L81.4923 49.5114L82.3888 49.0682ZM82.3888 41.9517L81.4913 41.5105L81.4894 41.5146L82.3888 41.9517ZM84.4683 39.5824L83.9349 38.7365L83.9325 38.7381L84.4683 39.5824ZM90.6814 39.5824L90.1455 40.4267L90.148 40.4283L90.6814 39.5824ZM92.7609 41.9517L91.8615 42.3888L91.8635 42.3929L92.7609 41.9517ZM92.7609 49.0682L91.8645 48.625L91.8625 48.6291L92.7609 49.0682ZM90.6814 51.429L90.148 50.5831L90.1455 50.5846L90.6814 51.429ZM89.795 49.7756L89.1731 48.9925V48.9925L89.795 49.7756ZM91.0819 47.9602L92.0194 48.3082V48.3082L91.0819 47.9602ZM91.0819 43.0767L92.0203 42.731V42.731L91.0819 43.0767ZM89.795 41.2443L90.4216 40.4649H90.4216L89.795 41.2443ZM85.3632 41.2443L84.7366 40.4649V40.4649L85.3632 41.2443ZM84.0763 43.0767L83.1379 42.731V42.731L84.0763 43.0767ZM84.0763 47.9602L83.1388 48.3082V48.3082L84.0763 47.9602ZM85.3632 49.7756L85.9851 48.9925V48.9925L85.3632 49.7756ZM87.5791 52.2727V51.2727C86.5626 51.2727 85.7153 51.0331 85.0017 50.5831L84.4683 51.429L83.9349 52.2749C85.0054 52.9499 86.232 53.2727 87.5791 53.2727V52.2727ZM84.4683 51.429L85.0041 50.5846C84.284 50.1277 83.7103 49.4849 83.2852 48.625L82.3888 49.0682L81.4923 49.5114C82.0672 50.6742 82.8799 51.6053 83.9325 52.2733L84.4683 51.429ZM82.3888 49.0682L83.2872 48.6291C82.8718 47.7792 82.6473 46.7531 82.6473 45.5227H81.6473H80.6473C80.6473 46.9969 80.917 48.3344 81.4903 49.5073L82.3888 49.0682ZM81.6473 45.5227H82.6473C82.6473 44.2798 82.8723 43.2445 83.2881 42.3888L82.3888 41.9517L81.4894 41.5146C80.9166 42.693 80.6473 44.0384 80.6473 45.5227H81.6473ZM82.3888 41.9517L83.2862 42.3929C83.7117 41.5273 84.2854 40.8828 85.0041 40.4267L84.4683 39.5824L83.9325 38.7381C82.8784 39.407 82.0658 40.342 81.4913 41.5105L82.3888 41.9517ZM84.4683 39.5824L85.0017 40.4283C85.7153 39.9783 86.5626 39.7386 87.5791 39.7386V38.7386V37.7386C86.232 37.7386 85.0054 38.0615 83.9349 38.7365L84.4683 39.5824ZM87.5791 38.7386V39.7386C88.5957 39.7386 89.4389 39.9783 90.1455 40.4267L90.6814 39.5824L91.2172 38.7381C90.1511 38.0615 88.9261 37.7386 87.5791 37.7386V38.7386ZM90.6814 39.5824L90.148 40.4283C90.8708 40.8841 91.4426 41.5269 91.8615 42.3888L92.7609 41.9517L93.6603 41.5146C93.0906 40.3424 92.276 39.4057 91.2147 38.7365L90.6814 39.5824ZM92.7609 41.9517L91.8635 42.3929C92.2837 43.2475 92.5109 44.2814 92.5109 45.5227H93.5109H94.5109C94.5109 44.0368 94.2382 42.69 93.6583 41.5105L92.7609 41.9517ZM93.5109 45.5227H92.5109C92.5109 46.7515 92.2841 47.7762 91.8645 48.625L92.7609 49.0682L93.6573 49.5114C94.2377 48.3375 94.5109 46.9985 94.5109 45.5227H93.5109ZM92.7609 49.0682L91.8625 48.6291C91.444 49.4853 90.8722 50.1264 90.148 50.5831L90.6814 51.429L91.2147 52.2749C92.2746 51.6066 93.0892 50.6738 93.6593 49.5073L92.7609 49.0682ZM90.6814 51.429L90.1455 50.5846C89.4389 51.0331 88.5957 51.2727 87.5791 51.2727V52.2727V53.2727C88.9261 53.2727 90.1511 52.9499 91.2172 52.2733L90.6814 51.429ZM87.5791 50.4659V51.4659C88.653 51.4659 89.6252 51.1874 90.4169 50.5587L89.795 49.7756L89.1731 48.9925C88.8058 49.2842 88.3006 49.4659 87.5791 49.4659V50.4659ZM89.795 49.7756L90.4169 50.5587C91.1509 49.9758 91.6828 49.215 92.0194 48.3082L91.0819 47.9602L90.1444 47.6122C89.9242 48.2055 89.5982 48.6549 89.1731 48.9925L89.795 49.7756ZM91.0819 47.9602L92.0194 48.3082C92.3429 47.4369 92.4995 46.5054 92.4995 45.5227H91.4995H90.4995C90.4995 46.2901 90.3778 46.9836 90.1444 47.6122L91.0819 47.9602ZM91.4995 45.5227H92.4995C92.4995 44.54 92.3429 43.6066 92.0203 42.731L91.0819 43.0767L90.1436 43.4224C90.3778 44.0582 90.4995 44.7555 90.4995 45.5227H91.4995ZM91.0819 43.0767L92.0203 42.731C91.6846 41.8198 91.1541 41.0538 90.4216 40.4649L89.795 41.2443L89.1684 42.0237C89.595 42.3666 89.9225 42.8223 90.1436 43.4224L91.0819 43.0767ZM89.795 41.2443L90.4216 40.4649C89.6297 39.8284 88.6558 39.5455 87.5791 39.5455V40.5455V41.5455C88.2978 41.5455 88.8012 41.7285 89.1684 42.0237L89.795 41.2443ZM87.5791 40.5455V39.5455C86.5024 39.5455 85.5285 39.8284 84.7366 40.4649L85.3632 41.2443L85.9897 42.0237C86.357 41.7285 86.8603 41.5455 87.5791 41.5455V40.5455ZM85.3632 41.2443L84.7366 40.4649C84.0041 41.0538 83.4736 41.8198 83.1379 42.731L84.0763 43.0767L85.0146 43.4224C85.2357 42.8223 85.5632 42.3666 85.9897 42.0237L85.3632 41.2443ZM84.0763 43.0767L83.1379 42.731C82.8153 43.6066 82.6586 44.54 82.6586 45.5227H83.6586H84.6586C84.6586 44.7555 84.7804 44.0582 85.0146 43.4224L84.0763 43.0767ZM83.6586 45.5227H82.6586C82.6586 46.5054 82.8153 47.4369 83.1388 48.3082L84.0763 47.9602L85.0137 47.6122C84.7804 46.9836 84.6586 46.2901 84.6586 45.5227H83.6586ZM84.0763 47.9602L83.1388 48.3082C83.4754 49.215 84.0073 49.9758 84.7413 50.5587L85.3632 49.7756L85.9851 48.9925C85.56 48.6549 85.234 48.2055 85.0137 47.6122L84.0763 47.9602ZM85.3632 49.7756L84.7413 50.5587C85.533 51.1874 86.5052 51.4659 87.5791 51.4659V50.4659V49.4659C86.8575 49.4659 86.3524 49.2842 85.9851 48.9925L85.3632 49.7756ZM98.416 56.8239L98.6241 55.8458L98.6141 55.8436L98.6041 55.8417L98.416 56.8239ZM97.862 56.6705L96.9012 56.3933L96.6706 57.1928L97.4148 57.5649L97.862 56.6705ZM98.3734 54.8977L98.6212 53.9289L97.6814 53.6885L97.4126 54.6206L98.3734 54.8977ZM99.6688 55.0341L99.5783 54.0382V54.0382L99.6688 55.0341ZM100.666 54.5312L99.9589 53.8241L99.9521 53.8309L99.9454 53.8379L100.666 54.5312ZM101.476 53.0909L102.414 53.4359L102.415 53.4352L101.476 53.0909ZM101.851 52.0682L102.79 52.4124L102.916 52.0676L102.789 51.7229L101.851 52.0682ZM97.0097 38.9091V37.9091H95.5763L96.0712 39.2543L97.0097 38.9091ZM99.1916 38.9091L100.136 38.5818L99.9035 37.9091H99.1916V38.9091ZM102.805 49.3409L101.86 49.6682L102.093 50.3409H102.805V49.3409ZM102.942 49.3409V50.3409H103.653L103.886 49.6682L102.942 49.3409ZM106.555 38.9091V37.9091H105.843L105.61 38.5818L106.555 38.9091ZM108.737 38.9091L109.675 39.2565L110.174 37.9091H108.737V38.9091ZM103.18 53.9091L102.242 53.5617L102.242 53.5623L103.18 53.9091ZM102.251 55.5881L101.483 54.9479L101.479 54.9527L102.251 55.5881ZM100.964 56.5852L100.56 55.6705L100.556 55.6723L100.964 56.5852ZM99.3279 56.9091V55.9091C99.0405 55.9091 98.8083 55.885 98.6241 55.8458L98.416 56.8239L98.2079 57.802C98.5578 57.8764 98.9335 57.9091 99.3279 57.9091V56.9091ZM98.416 56.8239L98.6041 55.8417C98.4871 55.8193 98.4022 55.7995 98.3441 55.7834C98.3155 55.7755 98.2982 55.7698 98.2899 55.7669C98.2805 55.7635 98.289 55.7659 98.3092 55.776L97.862 56.6705L97.4148 57.5649C97.6529 57.6839 97.9604 57.7548 98.2279 57.806L98.416 56.8239ZM97.862 56.6705L98.8228 56.9476L99.3342 55.1749L98.3734 54.8977L97.4126 54.6206L96.9012 56.3933L97.862 56.6705ZM98.3734 54.8977L98.1255 55.8665C98.6895 56.0108 99.2396 56.0772 99.7594 56.03L99.6688 55.0341L99.5783 54.0382C99.348 54.0591 99.0345 54.0347 98.6212 53.9289L98.3734 54.8977ZM99.6688 55.0341L99.7594 56.03C100.401 55.9717 100.95 55.6787 101.387 55.2246L100.666 54.5312L99.9454 53.8379C99.8028 53.9861 99.6869 54.0283 99.5783 54.0382L99.6688 55.0341ZM100.666 54.5312L101.373 55.2384C101.819 54.7927 102.15 54.1548 102.414 53.4359L101.476 53.0909L100.537 52.7459C100.313 53.3566 100.104 53.6788 99.9589 53.8241L100.666 54.5312ZM101.476 53.0909L102.415 53.4352L102.79 52.4124L101.851 52.0682L100.912 51.7239L100.537 52.7467L101.476 53.0909ZM101.851 52.0682L102.789 51.7229L97.9483 38.5638L97.0097 38.9091L96.0712 39.2543L100.912 52.4134L101.851 52.0682ZM97.0097 38.9091V39.9091H99.1916V38.9091V37.9091H97.0097V38.9091ZM99.1916 38.9091L98.2467 39.2364L101.86 49.6682L102.805 49.3409L103.75 49.0136L100.136 38.5818L99.1916 38.9091ZM102.805 49.3409V50.3409H102.942V49.3409V48.3409H102.805V49.3409ZM102.942 49.3409L103.886 49.6682L107.5 39.2364L106.555 38.9091L105.61 38.5818L101.997 49.0136L102.942 49.3409ZM106.555 38.9091V39.9091H108.737V38.9091V37.9091H106.555V38.9091ZM108.737 38.9091L107.799 38.5617L102.242 53.5617L103.18 53.9091L104.118 54.2565L109.675 39.2565L108.737 38.9091ZM103.18 53.9091L102.242 53.5623C102.022 54.1572 101.764 54.6109 101.483 54.9479L102.251 55.5881L103.019 56.2283C103.477 55.6789 103.838 55.0132 104.118 54.2559L103.18 53.9091ZM102.251 55.5881L101.479 54.9527C101.2 55.2918 100.894 55.5232 100.56 55.6705L100.964 56.5852L101.368 57.4999C102.012 57.2155 102.564 56.782 103.023 56.2234L102.251 55.5881ZM100.964 56.5852L100.556 55.6723C100.219 55.8229 99.8161 55.9091 99.3279 55.9091V56.9091V57.9091C100.056 57.9091 100.743 57.7794 101.372 57.4981L100.964 56.5852ZM122.585 41.8409L122.857 42.8031L123.866 42.5175L123.533 41.5229L122.585 41.8409ZM120.778 42.3523L119.842 42.7053L120.166 43.5646L121.05 43.3145L120.778 42.3523ZM120.275 41.4744L119.473 42.0719L119.48 42.0808L119.486 42.0895L120.275 41.4744ZM119.389 40.7585L119.836 39.8641V39.8641L119.389 40.7585ZM115.945 41.0312L116.512 41.855L116.514 41.8538L115.945 41.0312ZM115.698 43.6051L115.075 44.3872V44.3872L115.698 43.6051ZM117.403 44.3295L117.16 45.2997L117.164 45.3007L117.403 44.3295ZM119.346 44.8068L119.107 45.778L119.11 45.7786L119.346 44.8068ZM121.962 46.1108L121.248 46.8109L121.252 46.8144L121.962 46.1108ZM122.175 50.3636L121.368 49.7736L121.364 49.7787L122.175 50.3636ZM114.394 51.4034L114.946 50.5697V50.5697L114.394 51.4034ZM112.732 48.8636L112.49 47.8935L111.557 48.1268L111.753 49.0684L112.732 48.8636ZM114.641 48.3864L115.61 48.1365L115.362 47.1755L114.399 47.4162L114.641 48.3864ZM115.673 49.9716L115.101 50.7921L115.105 50.7951L115.673 49.9716ZM119.908 49.9034L120.494 50.7143L120.495 50.7132L119.908 49.9034ZM120.266 47.3125L119.566 48.026L119.572 48.0323L120.266 47.3125ZM118.8 46.6136L118.572 47.5873L118.574 47.5876L118.8 46.6136ZM116.619 46.1023L116.388 47.0753L116.39 47.0759L116.619 46.1023ZM113.977 44.7812L113.242 45.4601L113.249 45.4673L113.977 44.7812ZM113.764 40.5625L112.96 39.9676L112.956 39.9729L113.764 40.5625ZM115.477 39.2244L115.07 38.3109L115.067 38.3121L115.477 39.2244ZM120.999 39.5909L120.39 40.3835L120.393 40.3858L120.999 39.5909ZM122.585 41.8409L122.312 40.8787L120.505 41.3901L120.778 42.3523L121.05 43.3145L122.857 42.8031L122.585 41.8409ZM120.778 42.3523L121.713 41.9992C121.56 41.5933 121.34 41.2136 121.063 40.8594L120.275 41.4744L119.486 42.0895C119.653 42.3035 119.768 42.5089 119.842 42.7053L120.778 42.3523ZM120.275 41.4744L121.077 40.877C120.754 40.4432 120.328 40.1103 119.836 39.8641L119.389 40.7585L118.941 41.6529C119.199 41.7818 119.364 41.9261 119.473 42.0719L120.275 41.4744ZM119.389 40.7585L119.836 39.8641C119.278 39.5853 118.631 39.4773 117.948 39.4773V40.4773V41.4773C118.436 41.4773 118.749 41.5568 118.941 41.6529L119.389 40.7585ZM117.948 40.4773V39.4773C116.992 39.4773 116.113 39.6993 115.377 40.2087L115.945 41.0312L116.514 41.8538C116.846 41.6246 117.302 41.4773 117.948 41.4773V40.4773ZM115.945 41.0312L115.378 40.2075C114.623 40.7273 114.153 41.4786 114.153 42.4205H115.153H116.153C116.153 42.2373 116.211 42.0625 116.512 41.855L115.945 41.0312ZM115.153 42.4205H114.153C114.153 43.1986 114.453 43.8918 115.075 44.3872L115.698 43.6051L116.321 42.8231C116.216 42.7389 116.153 42.6424 116.153 42.4205H115.153ZM115.698 43.6051L115.075 44.3872C115.603 44.8083 116.334 45.0931 117.16 45.2997L117.403 44.3295L117.645 43.3594C116.926 43.1796 116.52 42.9815 116.321 42.8231L115.698 43.6051ZM117.403 44.3295L117.164 45.3007L119.107 45.778L119.346 44.8068L119.584 43.8357L117.641 43.3584L117.403 44.3295ZM119.346 44.8068L119.11 45.7786C120.179 46.0381 120.853 46.4078 121.248 46.8109L121.962 46.1108L122.676 45.4107C121.924 44.6433 120.854 44.1438 119.582 43.835L119.346 44.8068ZM121.962 46.1108L121.252 46.8144C121.617 47.1833 121.823 47.6661 121.823 48.3523H122.823H123.823C123.823 47.2089 123.455 46.1974 122.673 45.4072L121.962 46.1108ZM122.823 48.3523H121.823C121.823 48.8958 121.671 49.3585 121.368 49.7736L122.175 50.3636L122.983 50.9537C123.543 50.187 123.823 49.3088 123.823 48.3523H122.823ZM122.175 50.3636L121.364 49.7787C121.057 50.2055 120.61 50.5674 119.98 50.8476L120.386 51.7614L120.792 52.6752C121.696 52.2735 122.442 51.7036 122.987 50.9486L122.175 50.3636ZM120.386 51.7614L119.98 50.8476C119.364 51.1209 118.616 51.2727 117.71 51.2727V52.2727V53.2727C118.838 53.2727 119.873 53.0836 120.792 52.6752L120.386 51.7614ZM117.71 52.2727V51.2727C116.518 51.2727 115.618 51.0147 114.946 50.5697L114.394 51.4034L113.842 52.2371C114.92 52.9512 116.231 53.2727 117.71 53.2727V52.2727ZM114.394 51.4034L114.946 50.5697C114.31 50.1484 113.895 49.5387 113.711 48.6589L112.732 48.8636L111.753 49.0684C112.035 50.4158 112.728 51.4993 113.842 52.2371L114.394 51.4034ZM112.732 48.8636L112.975 49.8338L114.884 49.3565L114.641 48.3864L114.399 47.4162L112.49 47.8935L112.732 48.8636ZM114.641 48.3864L113.673 48.6362C113.903 49.5283 114.365 50.2793 115.101 50.7921L115.673 49.9716L116.244 49.1511C115.969 48.9594 115.743 48.6535 115.61 48.1365L114.641 48.3864ZM115.673 49.9716L115.105 50.7951C115.83 51.2945 116.714 51.5 117.675 51.5V50.5V49.5C116.989 49.5 116.538 49.3533 116.24 49.1481L115.673 49.9716ZM117.675 50.5V51.5C118.745 51.5 119.718 51.2738 120.494 50.7143L119.908 49.9034L119.323 49.0925C118.996 49.3285 118.481 49.5 117.675 49.5V50.5ZM119.908 49.9034L120.495 50.7132C121.247 50.1688 121.744 49.4102 121.744 48.4545H120.744H119.744C119.744 48.6239 119.684 48.8312 119.322 49.0936L119.908 49.9034ZM120.744 48.4545H121.744C121.744 47.7371 121.48 47.0939 120.961 46.5927L120.266 47.3125L119.572 48.0323C119.689 48.1448 119.744 48.2629 119.744 48.4545H120.744ZM120.266 47.3125L120.967 46.5991C120.467 46.1076 119.779 45.8148 119.027 45.6397L118.8 46.6136L118.574 47.5876C119.14 47.7193 119.43 47.8924 119.566 48.0259L120.266 47.3125ZM118.8 46.6136L119.029 45.64L116.847 45.1287L116.619 46.1023L116.39 47.0759L118.572 47.5873L118.8 46.6136ZM116.619 46.1023L116.849 45.1292C115.751 44.869 115.081 44.4949 114.704 44.0952L113.977 44.7812L113.249 45.4673C113.997 46.2608 115.089 46.7674 116.388 47.0753L116.619 46.1023ZM113.977 44.7812L114.711 44.1024C114.343 43.7043 114.141 43.2022 114.141 42.5227H113.141H112.141C112.141 43.6501 112.497 44.6537 113.242 45.4601L113.977 44.7812ZM113.141 42.5227H114.141C114.141 41.9848 114.288 41.5402 114.571 41.1521L113.764 40.5625L112.956 39.9729C112.41 40.7212 112.141 41.5834 112.141 42.5227H113.141ZM113.764 40.5625L114.567 41.1573C114.874 40.7429 115.302 40.3989 115.886 40.1368L115.477 39.2244L115.067 38.3121C114.208 38.6977 113.494 39.2458 112.96 39.9677L113.764 40.5625ZM115.477 39.2244L115.883 40.1379C116.464 39.8793 117.146 39.7386 117.948 39.7386V38.7386V37.7386C116.909 37.7386 115.944 37.9218 115.07 38.3109L115.477 39.2244ZM117.948 38.7386V39.7386C119.108 39.7386 119.883 39.9935 120.39 40.3835L120.999 39.5909L121.609 38.7983C120.639 38.0519 119.38 37.7386 117.948 37.7386V38.7386ZM120.999 39.5909L120.393 40.3858C120.97 40.8265 121.384 41.4066 121.636 42.1589L122.585 41.8409L123.533 41.5229C123.16 40.4115 122.517 39.4917 121.606 38.796L120.999 39.5909Z" fill="#BF8B70" mask="url(#path-7-outside-2_158_27)"/>
</g>
<defs>
<clipPath id="clip0_158_27">
<rect width="130" height="60" fill="white"/>
</clipPath>
<clipPath id="clip1_158_27">
<rect width="60" height="60" fill="white"/>
</clipPath>
</defs>
</svg>
