<svg width="48" height="25" viewBox="0 0 48 25" fill="none" xmlns="http://www.w3.org/2000/svg">
<g clip-path="url(#clip0_124_58)">
<mask id="mask0_124_58" style="mask-type:luminance" maskUnits="userSpaceOnUse" x="7" y="19" width="34" height="6">
<path d="M7.23242 19.694H40.3966V24.2848H7.23242V19.694Z" fill="white"/>
</mask>
<g mask="url(#mask0_124_58)">
<path d="M23.8086 19.7526C23.8078 19.7526 23.8063 19.7526 23.8056 19.7526C23.8041 19.7526 23.8034 19.7526 23.8019 19.7526C23.7967 19.7526 23.7923 19.7526 23.7871 19.7526C15.197 19.7526 9.2889 20.9478 7.34569 22.0191C9.29112 23.0846 15.1926 24.2761 23.7753 24.2863H23.836C32.4187 24.2761 38.3201 23.0846 40.2655 22.0191C38.3223 20.9478 32.4142 19.7526 23.8241 19.7526C23.8189 19.7526 23.8138 19.7526 23.8086 19.7526Z" fill="#3A2215"/>
</g>
<mask id="mask1_124_58" style="mask-type:luminance" maskUnits="userSpaceOnUse" x="0" y="0" width="48" height="22">
<path d="M0 0H47.6142V21.6939H0V0Z" fill="white"/>
</mask>
<g mask="url(#mask1_124_58)">
<path d="M45.2451 9.38885C44.8142 9.74305 44.8772 10.0306 44.758 10.35C44.6921 10.5261 44.6181 10.7557 44.2953 11.0331C44.2953 11.0331 40.1357 15.2458 37.3501 14.344C33.2223 13.0069 35.4876 7.81269 35.4876 7.81269L35.9132 6.90148C36.1249 6.44732 36.7571 6.26044 37.0133 6.1076C37.4796 5.83018 37.6336 5.92507 37.9097 5.33328C38.3576 4.37571 37.9386 2.68438 37.8039 2.32946C37.4071 2.53227 35.7666 3.41886 35.3195 4.37716C35.0434 4.96894 35.3876 5.313 35.5157 5.76064C35.5853 6.00692 35.6948 6.32418 35.4831 6.77834L35.0582 7.68955C35.0582 7.68955 32.5169 12.6802 28.7259 12.7136C24.0948 12.7541 24.0778 5.38399 24.0778 5.38399C24.0778 4.84218 24.3643 4.54013 24.5701 4.30255C24.9439 3.8694 25.505 3.61153 25.505 2.90458C25.505 1.79055 24.214 0.409236 23.8379 0.0304074V0.023164C23.8305 0.0159208 23.8209 0.0057799 23.8142 -0.000739098C23.8135 0.000709671 23.812 0.00215811 23.8105 0.00288259C23.8098 0.00215811 23.8083 0.000709717 23.8076 -1.47598e-05C23.8061 0.000709717 23.8054 0.00215811 23.8039 0.00288259C23.8031 0.00215811 23.8017 0.000709671 23.8009 -0.000739098C23.7943 0.0057799 23.7846 0.0159208 23.7772 0.023164V0.0304074C23.4012 0.409236 22.1101 1.79055 22.1101 2.90458C22.1101 3.61153 22.6713 3.8694 23.0451 4.30255C23.2502 4.54013 23.5374 4.84218 23.5374 5.38399C23.5374 5.38399 23.5204 12.7541 18.8885 12.7136C15.0983 12.6802 12.5569 7.68955 12.5569 7.68955L12.132 6.77834C11.9203 6.32418 12.0291 6.00692 12.0995 5.76064C12.2275 5.313 12.5717 4.96894 12.2956 4.37716C11.8485 3.41886 10.2073 2.53227 9.81128 2.32946C9.67581 2.68438 9.25755 4.37571 9.70468 5.33328C9.9808 5.92507 10.1355 5.83018 10.6011 6.1076C10.8573 6.26044 11.4902 6.44732 11.7019 6.90148L12.1276 7.81269C12.1276 7.81269 14.3928 13.0069 10.2651 14.344C7.47942 15.2458 3.31984 11.0331 3.31984 11.0331C2.99708 10.7557 2.92306 10.5261 2.85717 10.35C2.73799 10.0306 2.80091 9.74305 2.37008 9.38885C1.62684 8.77896 0.291395 8.41534 0.0137939 8.3516C0.0885612 8.61019 0.662271 9.85605 1.34332 10.4406C1.76379 10.8013 2.1591 10.6803 2.51295 10.8926C6.46377 13.2677 6.77765 21.5512 6.77765 21.5512H6.8117C7.36098 20.2865 14.7467 19.003 23.7824 19.003C23.7861 19.003 23.829 19.003 23.8327 19.003C32.8685 19.003 40.2534 20.2865 40.8027 21.5512H40.8375C40.8375 21.5512 41.1514 13.2677 45.1022 10.8926C45.4553 10.6803 45.8506 10.8013 46.2711 10.4406C46.9521 9.85605 47.5258 8.61019 47.6014 8.3516C47.3238 8.41534 45.9883 8.77896 45.2451 9.38885Z" fill="#3A2215"/>
</g>
</g>
<defs>
<clipPath id="clip0_124_58">
<rect width="48" height="25" fill="white"/>
</clipPath>
</defs>
</svg>
